<?xml version="1.0" encoding="UTF-8"?>
<svg width="1057px" height="356px" viewBox="0 0 1057 356" version="1.1" xmlns="http://www.w3.org/2000/svg" xmlns:xlink="http://www.w3.org/1999/xlink">
    <!-- Generator: Sketch 51.3 (57544) - http://www.bohemiancoding.com/sketch -->
    <title>Screenshot 2021-06-14 at 16.42.29</title>
    <desc>Created with Sketch.</desc>
    <defs></defs>
    <g id="Page-1" stroke="none" stroke-width="1" fill="none" fill-rule="evenodd">
        <g id="Screenshot-2021-06-14-at-16.42.29" fill="#000000" fill-rule="nonzero">
            <g id="Group" transform="translate(528.350000, 177.950000) scale(-1, 1) rotate(-180.000000) translate(-528.350000, -177.950000) translate(0.000000, 0.400000)">
                <path d="M743.5,354.6 C733.9,352.7 724.6,347.8 716.3,340.1 C708.7,333.1 696.8,313.4 690.9,298.2 C689.8,295.3 688.5,292.1 688,291 C687.1,289 682.6,275.4 679.6,265.7 C678.7,262.8 677.5,258.5 677.1,256.2 C676.6,253.9 675.2,247.7 674,242.5 C668.3,217.8 665.5,196.7 663,159 C662,144.8 662.1,138.4 663.5,120 C664.3,107.9 665.3,97.1 665.7,96 C666,95 666.9,90 667.6,85 L668.9,76 L659.7,67 C654.6,62.1 649.4,57.1 648,56 C634.2,45.2 620.6,39 605.3,36.5 C598.1,35.3 596.3,35.4 589,36.9 C578.2,39.3 572.6,42.3 565,50 C556.2,58.7 553.1,64.4 553,71.8 C553,77.1 553.4,78.1 558.3,85.1 C561.1,89.2 564.2,93.7 565,95 C570.1,103.1 581.8,122.7 583.8,126.5 C587.1,132.5 598.3,155.1 600.3,159.5 C601.2,161.4 603.4,166.4 605.3,170.5 C607.2,174.6 609.5,180.3 610.5,183 C611.5,185.8 612.7,188.5 613.1,189 C613.5,189.6 614.3,191.6 614.8,193.5 C615.4,195.4 616.8,199.5 618,202.5 C620.7,209.7 623.3,217.3 626,226.5 C627.2,230.6 628.6,235.1 629.1,236.5 C629.6,237.9 630.4,241 631,243.5 C631.5,246 632.6,251.2 633.5,255 C637.1,271.2 638.2,279.9 638.7,295.7 C639.2,313.1 638.3,319.7 634.3,329.2 C625.8,349.7 605.2,359.3 584.9,352.2 C575.2,348.8 569.4,345 561.4,337.1 C551.5,327.2 545.5,317.6 536,296 C534.5,292.7 529.9,279.4 528.3,274 C518.7,240.5 514.3,217.4 509.8,178 C508.4,165.5 508.4,112.4 509.8,103 C510.7,96.9 512.8,86.1 514.5,78.5 C515,76.3 513.9,74.9 505.8,67.7 C491.5,55 478.5,46.9 464.5,42 C461.8,41.1 458.6,39.9 457.5,39.4 C456.4,38.9 451,37.6 445.6,36.5 C433.6,34.1 417.9,33.9 409.5,36 C404.4,37.3 396.6,40.1 395.1,41.2 C394.9,41.4 397.6,44.5 401.1,48.2 C410.2,57.8 420.8,70.8 426.3,79.1 C437.2,95.7 445.7,116.1 447.5,130 C447.8,132.8 448.6,137.3 449.1,140 C450.2,146 448.1,163.7 445.4,170.6 C438.9,187 426.6,196.6 407.4,200.2 C399.7,201.6 398.3,201.6 391,200.1 C372.8,196.5 358.2,186 346.4,168.3 C339.8,158.5 337.1,152 331,132 C329,125.4 327.8,105 328.9,93.9 C329.9,83 332.2,71.5 334,68.3 C334.6,67.3 335,66 335,65.5 C335,64.3 337.9,57.4 341.4,50.3 C344.2,44.7 344.3,44.9 334,40.8 C320.6,35.4 313.1,34 296,34 C281.1,34 280.3,34.1 275.4,36.7 C259.6,45 258.1,57.8 265.9,115.5 C268.1,131.2 268.9,148.9 267.9,156 C264.4,180.9 247.6,196.5 221.5,199.1 C211.9,200 211.3,200.7 215.3,206.4 C217,208.9 218.7,211.2 219,211.5 C220.4,212.9 229,231 231.8,238.5 C239.9,260.6 243.4,273.8 245.8,292.3 C247.7,307 246.6,316.3 241.8,326 C235.1,339.5 225.9,346.8 212,349.7 C204.2,351.3 203,351.3 196,349.9 C182.3,347 170.6,339.4 161.1,327.2 C148.1,310.5 143.4,294.9 133.6,236.5 C131.5,224.1 129.1,209.3 127.5,198.5 C126.7,193.3 125.4,184.7 124.6,179.5 C123.8,174.3 122.7,166.6 122.1,162.5 C121.5,158.4 120.2,150.1 119.3,144 L117.6,133 L111.3,127.1 C107.8,123.9 101.9,119.1 98.2,116.4 C94.5,113.8 91.1,111.2 90.5,110.8 C88,108.8 62.8,93.4 56.5,90 C52.7,87.9 49.1,85.9 48.5,85.5 C48,85 40.3,81 31.5,76.5 C12.2,66.5 8.6,64.3 3.8,59.7 C0.5,56.6 0,55.5 0,51.8 C0,47.4 2.6,40.8 5.2,38.8 C9.1,35.7 13.6,35.2 20.6,36.9 C32.1,39.8 46.7,47.5 80.5,68.5 C97.1,78.8 107.4,84.5 109.7,84.5 C111,84.5 111.2,83.6 110.7,78.8 C109.3,65.8 106.9,44.5 106.1,37 C105.5,32.6 105.1,25.2 105.1,20.7 C105,10.9 106.6,6.7 111.8,2.7 C114.7,0.5 116.3,5.32907052e-15 120.9,0.1 C124.7,0.2 127.6,0.8 129.5,2.1 C136.4,6.6 136.9,7.9 139.6,29 C144.2,65.1 144.8,69.1 148.4,85.2 C149.9,92 155.1,108.6 157,113 C168.5,139.1 178.7,153.1 192,160.9 C197.4,164 209,167.5 214,167.5 C217.7,167.5 225.2,164.6 227.7,162.3 C232.3,158 233.5,152.3 233.3,136 C233.3,127.8 232.7,117.2 232,112.5 C226.9,74.1 225.9,54.3 228.5,43.9 C231,33.7 235.5,25.1 241.3,19.2 C250.8,9.5 261.7,4.7 280.4,2 C291.3,0.4 293,0.4 304.9,1.9 C325.6,4.5 339,8.5 360.5,18.6 L364.6,20.5 L377.1,14.2 C395,5.1 403.9,3 424.5,3.1 C436.1,3.1 442.7,3.6 448.5,4.9 C474.9,10.8 493.1,19.4 515.8,36.7 C521.5,41 526.4,44.5 526.8,44.5 C527.2,44.5 528.6,42.8 530,40.7 C533.2,35.7 540.7,26.8 545,22.7 C549.3,18.6 560.6,11 564,10 C565.4,9.6 567,8.9 567.5,8.5 C569.1,7.2 588,3.5 592.8,3.5 C602.7,3.5 620.8,7.4 630.7,11.6 C646.2,18.3 655.3,24.1 671.8,37.8 C676.3,41.7 680.2,44.6 680.4,44.4 C680.6,44.2 683.1,40.4 686.1,36.1 C691.4,28.4 704.2,15.5 706.6,15.5 C707.3,15.5 708,15.2 708.2,14.8 C708.6,13.8 716.2,10.2 722.5,7.9 C730.2,5.2 755.3,5.3 763.6,8.2 C783.5,15.1 797,24.9 810.7,42.3 C814.2,46.8 817.7,50.5 818.4,50.5 C819.1,50.5 820.7,48.4 822,45.7 C830.7,28.1 844.8,14.4 860.2,8.5 C872.9,3.7 892.1,3.8 906.4,8.7 C913.7,11.2 925.8,17.5 931.9,21.8 C938.5,26.6 952.1,40.2 957.8,47.7 C964.6,56.7 972.7,73 976.3,85 C980.2,98.1 981.3,106.1 981.4,121.7 L981.5,137.5 L987.7,137.5 C1004.5,137.5 1036.7,150.2 1049.7,162 C1054.9,166.7 1055.9,168.1 1056.4,171.9 C1056.8,174.4 1056.6,178.2 1056,180.4 C1054.5,186.1 1051.4,187.9 1043.4,187.7 C1036.4,187.6 1035.3,187.2 1015,176.5 C1008.7,173.2 1002.8,170.5 1002,170.5 C1001.1,170.5 999.8,169.9 999.2,169.3 C998.3,168.4 994.5,168 987.7,168 C978.2,168 977.2,168.2 973.4,170.8 C971.2,172.3 967.2,176 964.5,179.1 C945.3,201.3 920.2,209.7 892.7,202.9 C881.4,200.1 869.4,194.1 859.3,186.1 C851.9,180.2 837.5,165 836.2,161.5 C835.9,160.7 834.4,158.2 832.9,156 C831.5,153.8 828.9,149.1 827.2,145.5 C824,138.8 823.5,137.6 817.1,118.5 C808.4,92.8 800.9,78.1 788.4,61.9 C782.7,54.6 773.6,46.3 767.1,42.7 C756.9,36.9 741.1,35.9 730.3,40.2 C722.6,43.3 712.7,52.3 709.7,59 C708.7,61.2 707.4,63.9 706.9,65 C703.7,71.9 703.8,73.5 708.4,79.9 C715.2,89.4 727,107.3 727,108 C727,108.4 728.1,110.1 729.4,111.8 C734.8,119.2 751.5,152.1 760.7,173.5 C768.7,192.1 771.4,199.3 776.5,215 C781.9,231.8 783.9,239 787.3,254 C791.6,272.9 792.5,280.9 792.5,300.5 C792.5,317.8 792.2,320.8 790.3,326.7 C785.7,340.7 779.3,347.9 767,352.7 C761.8,354.8 749.4,355.7 743.5,354.6 Z M753.3,319.7 C755.9,317.3 757.1,315 758.6,308.6 C760.2,301.8 760.4,289.5 758.9,280.6 C756.6,265.8 753.8,250.8 753,248 C752.5,246.4 751.4,242.5 750.6,239.5 C747.6,228.5 744.8,219 744,217 C743.6,215.9 742.2,212.1 741,208.5 C739.8,204.9 738.1,200.6 737.4,198.8 C736.6,197.1 736,195.3 736,194.7 C736,193.8 733.8,188.4 730,180 C729,177.8 727.1,173.3 725.7,169.9 C722.9,163.3 711.3,140.4 706.2,131.5 C702.1,124.5 699.3,120.9 698.5,121.7 C696.9,123.2 695.8,138.1 696.4,150.5 C697.1,168.5 698.7,188.4 700,197 C703.3,218.8 704.1,223.7 705.4,230.5 C707.1,238.8 709,247 711.5,256 C712.4,259.3 713.5,263.8 714.1,266 C714.6,268.2 715.4,270.9 715.9,272 C716.4,273.1 717.8,276.9 719,280.5 C724.6,297.1 733.1,312.9 739.6,318.7 C744.1,322.7 749.6,323.1 753.3,319.7 Z M598.7,319 C599.9,318.2 601.8,314.9 603,311.7 C605,306.5 605.1,304.6 604.7,291.5 C604.1,274.8 601.9,260.8 597,242.2 C595.2,235.5 594.2,231.9 590.6,219.8 C588.8,213.6 583.2,197.6 582,195 C581.5,193.9 580.1,190.5 579,187.5 C577.8,184.5 576.3,180.7 575.6,179 C565.8,156.6 555.5,136.4 547.4,124 L543.5,118 L542.7,123.5 C541.8,129.8 542.7,168.7 544,182 C547.9,220 556,256.5 566.4,284 C572.7,300.5 581.3,314.4 587.9,318.7 C591.1,320.9 595.8,321 598.7,319 Z M207.5,314 C210.3,311.9 211,310.6 211.9,305.1 C213.9,293.6 210.3,272.8 203,254 C198.6,242.5 193.8,231.9 188.8,222 C182.3,209.5 163.3,179.4 159.1,175.2 C157.7,173.8 157.7,179.3 159.1,189 C159.6,192.9 160.7,200.5 161.5,206 C163.9,222.8 167.7,245.4 170.4,259 C174.6,280.4 180.8,299.7 185.2,306 C190.8,313.8 194.4,316.2 200.4,316.4 C203.1,316.5 205.3,315.8 207.5,314 Z M923.9,168.6 C933.6,163.6 942.1,151 945.4,136.5 C948.1,124.9 946.8,96.8 943.1,88 C942.6,86.9 941.2,83.3 939.9,80 C930,54.5 910.6,38.5 889.6,38.5 C863.5,38.6 848.5,58.5 848.6,93 C848.6,110.2 851.4,121.7 859.2,137 C865.5,149.5 872,157 884.5,166.3 C887.4,168.4 894.3,170.9 900.4,171.9 C908.2,173.3 917.2,172 923.9,168.6 Z M404.6,166 C409.2,163.8 411.8,160.4 414,154 C416.5,146.7 416.5,140.3 414.1,129.4 C411.6,118.2 409.5,112.6 404.4,102.7 C395.8,86 374.8,61.8 371.4,64.6 C370.6,65.2 370,66.2 370,66.7 C370,67.3 369.3,69.1 368.5,70.8 C363.2,82.5 361.2,98.1 362.9,114.9 C364,126.2 364.2,127.1 368.2,138.5 C372.4,150.8 380.3,161.4 388.3,165.7 C392.3,167.8 400.7,168 404.6,166 Z" id="Shape"></path>
            </g>
        </g>
    </g>
</svg>